<?xml version="1.0" encoding="utf-8"?>
<!-- Generator: Adobe Illustrator 19.1.0, SVG Export Plug-In . SVG Version: 6.00 Build 0)  -->
<svg version="1.1" id="Layer_1" xmlns="http://www.w3.org/2000/svg" xmlns:xlink="http://www.w3.org/1999/xlink" x="0px" y="0px"
	 viewBox="0 0 82.2 82.2" style="enable-background:new 0 0 82.2 82.2;" xml:space="preserve">
<style type="text/css">
	.st0{fill:#15518C;stroke:#10538E;stroke-width:0.2477;stroke-miterlimit:10;}
	.st1{fill:#15518C;}
	.st2{opacity:0.2;fill:#15518C;stroke:#10538E;stroke-width:0.346;stroke-miterlimit:10;}
	.st3{fill:#15518C;stroke:#10538E;stroke-width:0.2618;stroke-miterlimit:10;}
</style>
<path class="st0" d="M11.8,29c0.1-0.1,0.1-0.2,0.2-0.4c0.2-0.3,0.4-0.4,0.7-0.3c0.9,0.1,1.7,0.1,2.6,0.2c0.9,0.1,1.7,0.1,2.6,0.2
	c0.9,0.1,1.7,0.1,2.6,0.2c1,0.1,1.9,0.2,2.9,0.2c0.9,0.1,1.8,0.1,2.6,0.2c0.9,0.1,1.7,0.1,2.6,0.2c0.9,0.1,1.7,0.1,2.6,0.2
	c1.5,0.1,2.9,0.2,4.4,0.3c0.6,0,1.1-0.1,1.6-0.3c0.7-0.3,1-0.9,1.2-1.6c0.2-0.7,0.2-1.4,0.2-2.1c-0.1-1.7-0.6-3.3-1.2-4.8
	c-1-2.4-0.6-4.6,1.1-6.5c1-1.1,2.3-1.7,3.7-1.8c0,0,0.1,0,0.1,0c0.2,0,0.5,0,0.7,0c0.2,0,0.4,0,0.6,0.1c1.3,0.2,2.5,0.8,3.5,1.7
	c0.8,0.8,1.4,1.7,1.7,2.8c0.4,1.3,0.2,2.6-0.4,3.7c-1.7,3.1-3.3,6.2-5,9.2c-1.1,2.1-2.2,4.2-3.3,6.3c-1.1,2.1-2.2,4.3-3.2,6.5
	c-0.5,1-0.9,2-1.1,3.1c-0.1,0.4-0.1,0.8-0.2,1.2c-0.1,0.7,0.2,1.3,0.5,1.8c1,1.5,2.4,2.3,4.2,2.2c1.6-0.1,2.7-0.9,3.4-2.3
	c0.7-1.2,0.7-2.5,0.1-3.8c-0.6-1.3-1.1-2.6-1.4-4c-0.2-0.9-0.4-1.9-0.4-2.8c0-0.7,0.1-1.4,0.3-2.1c0.5-1.1,1.3-1.8,2.5-2.1
	c0.6-0.1,1.2-0.2,1.9-0.1c0.9,0.1,1.8,0.2,2.7,0.3c1.2,0.1,2.5,0.2,3.7,0.3c1.1,0.1,2.1,0.2,3.2,0.3c1.2,0.1,2.3,0.2,3.5,0.3
	c1.3,0.1,2.5,0.2,3.8,0.3c1.2,0.1,2.3,0.2,3.5,0.3c0.8,0.1,1.5,0.1,2.3,0.2c0.5,0,0.9,0.3,0.9,0.8c0,0.5-0.4,0.9-0.9,0.9
	c-0.5,0-0.9-0.1-1.4-0.1c-0.8-0.1-1.5-0.1-2.3-0.2c-1-0.1-1.9-0.2-2.9-0.2c-0.9-0.1-1.8-0.1-2.6-0.2c-0.9-0.1-1.7-0.1-2.6-0.2
	c-0.9-0.1-1.7-0.1-2.6-0.2c-1-0.1-1.9-0.2-2.9-0.2c-0.8-0.1-1.5-0.1-2.3-0.2c-0.8-0.1-1.6-0.2-2.4-0.2c-0.5,0-1-0.1-1.5-0.1
	c-0.3,0-0.5,0-0.8,0.1c-0.8,0.2-1.2,0.7-1.4,1.5c-0.1,0.6-0.1,1.2-0.1,1.8c0.2,1.5,0.6,3,1.2,4.4c0.2,0.6,0.5,1.1,0.7,1.7
	c0.9,2.7-0.3,5.8-2.8,7.1c-0.7,0.4-1.5,0.6-2.3,0.7c0,0-0.1,0-0.1,0c-0.2,0-0.4,0-0.6,0c-0.2,0-0.4,0-0.6-0.1
	c-1.4-0.2-2.5-0.8-3.5-1.7c-0.6-0.5-1-1.2-1.4-1.9C34,48.8,33.9,47.9,34,47c0.2-1.4,0.6-2.7,1.2-4c0.7-1.5,1.4-3,2.1-4.5
	c2-4.1,4.1-8.1,6.3-12.1c1.1-2,2.2-4,3.3-6c0.6-1.1,0.6-2.2,0-3.3c-0.8-1.5-2-2.4-3.7-2.6c-2.4-0.3-4.1,1.3-4.6,3.2
	c-0.3,1-0.2,1.9,0.2,2.8c0.6,1.3,1,2.7,1.3,4.2c0.2,1.2,0.3,2.4,0,3.6c-0.2,0.9-0.5,1.6-1.2,2.3c-0.7,0.7-1.5,1-2.4,1.1
	c-0.6,0.1-1.3,0-1.9,0c-1.4-0.1-2.8-0.2-4.2-0.3c-1.2-0.1-2.3-0.2-3.5-0.3c-1.2-0.1-2.3-0.2-3.5-0.3c-1.2-0.1-2.3-0.2-3.5-0.3
	c-1.1-0.1-2.1-0.2-3.2-0.3c-1-0.1-1.9-0.2-2.9-0.2c-0.4,0-0.8-0.1-1.2-0.1c-0.3,0-0.6-0.2-0.7-0.5c0,0,0-0.1,0-0.1
	C11.8,29.2,11.8,29.1,11.8,29z"/>
<g>
	<path class="st0" d="M4.5,68h0.9v-9.8H4.5v-1H8c0.4,0,0.8,0.1,1.2,0.2s0.9,0.3,1.2,0.6s0.7,0.6,1,1c0.3,0.4,0.4,0.9,0.4,1.4
		c0,0.8-0.2,1.5-0.6,2.1s-1,0.9-1.9,1.1l2.1,4.5H13v1h-2.2l-2.6-5.4c-0.1,0-0.2,0-0.4,0s-0.2,0-0.4,0H6.4V68h1.8v1H4.5V68z
		 M6.4,62.5H8c0.5,0,1-0.1,1.4-0.2c0.4-0.1,0.6-0.3,0.9-0.5c0.2-0.2,0.4-0.5,0.4-0.7c0.1-0.3,0.1-0.5,0.1-0.8c0-0.3-0.1-0.5-0.2-0.8
		c-0.1-0.3-0.3-0.5-0.6-0.7c-0.2-0.2-0.5-0.3-0.9-0.5c-0.3-0.1-0.7-0.2-1.1-0.2H6.4V62.5z"/>
	<path class="st0" d="M14.2,68h1.3v-4.3h-1.3v-1h2.3V68h1.2v1h-3.5V68z M15.2,60.3c0-0.2,0.1-0.4,0.2-0.5c0.1-0.1,0.3-0.2,0.5-0.2
		c0.2,0,0.3,0.1,0.5,0.2c0.1,0.1,0.2,0.3,0.2,0.5c0,0.2-0.1,0.4-0.2,0.5S16.1,61,16,61c-0.2,0-0.4-0.1-0.5-0.2
		C15.3,60.7,15.2,60.5,15.2,60.3z"/>
	<path class="st0" d="M18.9,62.6h3.5v1h-1c0.3,0.6,0.7,1.3,1,1.9c0.3,0.6,0.6,1.3,0.9,1.9c0.3-0.6,0.6-1.3,0.9-1.9
		c0.3-0.6,0.7-1.3,1-1.9h-1v-1h3.4v1h-1.3c-0.5,1-1,1.9-1.5,2.8c-0.5,0.9-1,1.9-1.5,2.8c-0.5-1-1-1.9-1.5-2.8
		c-0.5-0.9-1-1.9-1.5-2.8h-1.4V62.6z"/>
	<path class="st0" d="M35.1,65.1l-4.9,1.9c0.2,0.3,0.5,0.6,0.8,0.8s0.7,0.3,1.2,0.3c0.3,0,0.6-0.1,0.9-0.2c0.3-0.1,0.5-0.3,0.7-0.4
		c0.1,0.1,0.2,0.3,0.3,0.4c0.1,0.1,0.2,0.3,0.3,0.4c-0.3,0.3-0.6,0.5-1,0.7c-0.4,0.2-0.8,0.2-1.2,0.2c-0.5,0-0.9-0.1-1.3-0.3
		c-0.4-0.2-0.8-0.4-1.1-0.7s-0.5-0.6-0.7-1s-0.3-0.8-0.3-1.3c0-0.5,0.1-0.9,0.3-1.3s0.4-0.8,0.7-1.1s0.7-0.5,1.1-0.7
		c0.4-0.2,0.8-0.3,1.3-0.3c0.3,0,0.7,0.1,1,0.2c0.3,0.1,0.6,0.3,0.8,0.5s0.5,0.5,0.7,0.8C34.8,64.4,35,64.7,35.1,65.1z M32.1,63.5
		c-0.4,0-0.7,0.1-1,0.2c-0.3,0.1-0.5,0.3-0.8,0.5c-0.2,0.2-0.4,0.5-0.5,0.8c-0.1,0.3-0.1,0.6-0.1,0.9c0.6-0.2,1.3-0.5,1.9-0.7
		c0.6-0.2,1.3-0.5,1.9-0.7c-0.2-0.3-0.4-0.5-0.7-0.7C32.8,63.6,32.5,63.5,32.1,63.5z"/>
	<path class="st0" d="M36.3,68h1.3v-4.3h-1.2v-1h2.1l0,0.4c0,0.2,0,0.4,0,0.6c0,0.2,0,0.4,0,0.6c0.1-0.3,0.3-0.5,0.5-0.8
		c0.2-0.2,0.4-0.4,0.7-0.6c0.2-0.2,0.5-0.3,0.7-0.3c0.2-0.1,0.5-0.1,0.7-0.1l-0.1,1c-0.4,0-0.7,0.1-1,0.2c-0.3,0.1-0.6,0.3-0.8,0.5
		c-0.2,0.2-0.4,0.4-0.5,0.7c-0.1,0.3-0.2,0.6-0.2,0.9V68h1.2v1h-3.5V68z"/>
	<path class="st0" d="M42.4,68h1.3V57.3h-1.2v-1h2.2V63c0,0.1,0,0.2-0.1,0.3c0,0.1,0,0.2-0.1,0.3c0-0.1,0.1-0.2,0.3-0.4
		s0.3-0.3,0.5-0.4s0.5-0.2,0.7-0.3c0.3-0.1,0.6-0.1,0.9-0.1c0.5,0,0.9,0.1,1.3,0.3c0.4,0.2,0.8,0.4,1.1,0.7c0.3,0.3,0.5,0.7,0.7,1.1
		s0.3,0.8,0.3,1.3s-0.1,0.9-0.3,1.3c-0.2,0.4-0.4,0.8-0.7,1.1c-0.3,0.3-0.7,0.5-1.1,0.7s-0.8,0.3-1.3,0.3c-0.3,0-0.6,0-0.9-0.1
		c-0.3-0.1-0.5-0.2-0.7-0.3c-0.2-0.1-0.4-0.3-0.5-0.4c-0.1-0.1-0.2-0.3-0.3-0.4v0.6V69h-2.2V68z M49.3,65.8c0-0.3-0.1-0.6-0.2-0.9
		c-0.1-0.3-0.3-0.5-0.5-0.7s-0.4-0.4-0.7-0.5s-0.6-0.2-0.9-0.2c-0.3,0-0.7,0.1-0.9,0.2c-0.3,0.1-0.5,0.3-0.7,0.5s-0.4,0.4-0.5,0.7
		c-0.1,0.3-0.2,0.6-0.2,0.9c0,0.3,0.1,0.6,0.2,0.9c0.1,0.3,0.3,0.5,0.5,0.7c0.2,0.2,0.4,0.4,0.7,0.5C46.3,68,46.7,68,47,68
		c0.3,0,0.6-0.1,0.9-0.2c0.3-0.1,0.5-0.3,0.7-0.5c0.2-0.2,0.4-0.4,0.5-0.7C49.2,66.4,49.3,66.1,49.3,65.8z"/>
	<path class="st0" d="M51.5,65.8c0-0.5,0.1-0.9,0.3-1.3s0.4-0.8,0.7-1.1c0.3-0.3,0.7-0.5,1.1-0.7c0.4-0.2,0.9-0.3,1.3-0.3
		c0.3,0,0.6,0,0.9,0.1c0.3,0.1,0.5,0.2,0.7,0.3s0.4,0.3,0.5,0.4s0.2,0.3,0.3,0.4c0-0.2,0-0.4,0-0.6c0-0.2,0-0.4,0-0.6h0.9V68h1.3v1
		h-2.2v-0.5v-0.6c0,0.1-0.1,0.2-0.3,0.4c-0.1,0.1-0.3,0.3-0.5,0.4c-0.2,0.1-0.5,0.2-0.7,0.3c-0.3,0.1-0.6,0.1-0.9,0.1
		c-0.5,0-0.9-0.1-1.3-0.3c-0.4-0.2-0.8-0.4-1.1-0.7c-0.3-0.3-0.5-0.6-0.7-1S51.5,66.2,51.5,65.8z M52.6,65.8c0,0.3,0.1,0.6,0.2,0.9
		c0.1,0.3,0.3,0.5,0.5,0.7c0.2,0.2,0.4,0.4,0.7,0.5c0.3,0.1,0.6,0.2,0.9,0.2c0.3,0,0.6-0.1,0.9-0.2c0.3-0.1,0.5-0.3,0.7-0.5
		c0.2-0.2,0.4-0.4,0.5-0.7s0.2-0.6,0.2-0.9c0-0.3-0.1-0.6-0.2-0.9c-0.1-0.3-0.3-0.5-0.5-0.7s-0.4-0.4-0.7-0.5
		c-0.3-0.1-0.6-0.2-0.9-0.2c-0.3,0-0.6,0.1-0.9,0.2c-0.3,0.1-0.5,0.3-0.7,0.5s-0.4,0.4-0.5,0.7C52.6,65.2,52.6,65.5,52.6,65.8z"/>
	<path class="st0" d="M65.5,68h1.3v-3.2c0-0.3-0.1-0.6-0.4-0.9c-0.2-0.2-0.6-0.4-1-0.4c-0.3,0-0.6,0.1-0.9,0.2S64,64,63.8,64.2
		c-0.2,0.2-0.4,0.4-0.5,0.7c-0.1,0.3-0.2,0.6-0.2,0.9V68h1.2v1h-3.5v-1H62v-4.3h-1.2v-1h2.1l0,0.4c0,0.2,0,0.4,0,0.6
		c0,0.2,0,0.4,0,0.6c0.2-0.5,0.6-1,1.1-1.3c0.5-0.3,1.1-0.5,1.7-0.5c0.6,0,1.2,0.2,1.5,0.5c0.4,0.4,0.6,0.8,0.6,1.4V68H69v1h-3.5V68
		z"/>
	<path class="st0" d="M74.5,68H75c-0.3-0.3-0.5-0.7-0.8-1s-0.5-0.7-0.7-1l-1,0.9V68h1.2v1h-3.5v-1h1.3V57.3h-1.2v-1h2.2v9.3l2.1-1.9
		h-0.8v-1h3.3v1h-1.1c-0.3,0.3-0.6,0.5-0.8,0.8s-0.5,0.5-0.8,0.8c0.3,0.4,0.7,0.9,1,1.3c0.3,0.4,0.7,0.9,1,1.4h1.5v1h-3.3V68z"/>
</g>
</svg>
